<?xml version="1.0" encoding="UTF-8"?>
<svg width="6814px" height="2409px" viewBox="0 0 6814 2409" version="1.1" xmlns="http://www.w3.org/2000/svg" xmlns:xlink="http://www.w3.org/1999/xlink">
    <title>Untitled 6</title>
    <g id="Page-1" stroke="none" stroke-width="1" fill="none" fill-rule="evenodd">
        <g id="drawSVG">
            <polygon id="Rectangle-Copy-19-Copy" fill="#FFFFFF" fill-rule="nonzero" points="0 364 2885 364 2885 428 0 428 0 400.31281"></polygon>
            <rect id="Rectangle-Copy-22" fill="#FFFFFF" fill-rule="nonzero" x="3929" y="1980" width="2885" height="64"></rect>
            <rect id="Rectangle-Copy-24" fill="#FFFFFF" fill-rule="nonzero" x="1154.5" y="2146" width="576" height="64"></rect>
            <rect id="Rectangle-Copy-23-Copy" fill="#FAFAFA" fill-rule="nonzero" x="0" y="2329" width="2885" height="64"></rect>
            <polygon id="Rectangle-Copy-Copy" fill="#FFFFFF" fill-rule="nonzero" points="582 215 1158 215 1158 279 582 279 582 251.31281"></polygon>
            <rect id="Rectangle-Copy" fill="#FAFAFA" fill-rule="nonzero" x="582" y="153" width="576" height="64"></rect>
            <polygon id="Rectangle-Copy-Copy-2" fill="#FFFFFF" fill-rule="nonzero" points="582 217 3335 217 3335 281 582 281 582 253.31281"></polygon>
            <rect id="Rectangle-Copy-2" fill="#FAFAFA" fill-rule="nonzero" x="582" y="153" width="2753" height="64"></rect>
            <polygon id="Rectangle-Copy-Copy-3" fill="#FFFFFF" fill-rule="nonzero" points="582 345 3335 345 3335 409 582 409 582 381.31281"></polygon>
            <rect id="Rectangle-Copy-3" fill="#FAFAFA" fill-rule="nonzero" x="582" y="281" width="2753" height="64"></rect>
            <polygon id="Rectangle-Copy-Copy-4" fill="#FFFFFF" fill-rule="nonzero" points="582 473 3335 473 3335 537 582 537 582 509.31281"></polygon>
            <rect id="Rectangle-Copy-4" fill="#FAFAFA" fill-rule="nonzero" x="582" y="409" width="2753" height="64"></rect>
            <polygon id="Rectangle-Copy-Copy-5" fill="#FFFFFF" fill-rule="nonzero" points="582 601 3335 601 3335 665 582 665 582 637.31281"></polygon>
            <rect id="Rectangle-Copy-5" fill="#FAFAFA" fill-rule="nonzero" x="582" y="537" width="2753" height="64"></rect>
            <polygon id="Rectangle-Copy-Copy-6" fill="#FFFFFF" fill-rule="nonzero" points="582 729 3335 729 3335 793 582 793 582 765.31281"></polygon>
            <rect id="Rectangle-Copy-6" fill="#FAFAFA" fill-rule="nonzero" x="582" y="665" width="2753" height="64"></rect>
            <polygon id="Rectangle-Copy-Copy-7" fill="#FFFFFF" fill-rule="nonzero" points="582 857 3335 857 3335 921 582 921 582 893.31281"></polygon>
            <rect id="Rectangle-Copy-7" fill="#FAFAFA" fill-rule="nonzero" x="582" y="793" width="2753" height="64"></rect>
            <polygon id="Rectangle-Copy-Copy-8" fill="#FFFFFF" fill-rule="nonzero" points="582 985 3335 985 3335 1049 582 1049 582 1021.31281"></polygon>
            <rect id="Rectangle-Copy-8" fill="#FAFAFA" fill-rule="nonzero" x="582" y="921" width="2753" height="64"></rect>
            <polygon id="Rectangle-Copy-Copy-9" fill="#FFFFFF" fill-rule="nonzero" points="582 1113 3335 1113 3335 1177 582 1177 582 1149.31281"></polygon>
            <rect id="Rectangle-Copy-9" fill="#FAFAFA" fill-rule="nonzero" x="582" y="1049" width="2753" height="64"></rect>
            <polygon id="Rectangle-Copy-Copy-10" fill="#FFFFFF" fill-rule="nonzero" points="582 1241 3335 1241 3335 1305 582 1305 582 1277.31281"></polygon>
            <rect id="Rectangle-Copy-10" fill="#FAFAFA" fill-rule="nonzero" x="582" y="1177" width="2753" height="64"></rect>
            <polygon id="Rectangle-Copy-Copy-11" fill="#FFFFFF" fill-rule="nonzero" points="582 1369 3335 1369 3335 1433 582 1433 582 1405.31281"></polygon>
            <rect id="Rectangle-Copy-11" fill="#FAFAFA" fill-rule="nonzero" x="582" y="1305" width="2753" height="64"></rect>
            <polygon id="Rectangle-Copy-Copy-12" fill="#FFFFFF" fill-rule="nonzero" points="582 1497 3335 1497 3335 1561 582 1561 582 1533.31281"></polygon>
            <rect id="Rectangle-Copy-12" fill="#FAFAFA" fill-rule="nonzero" x="582" y="1433" width="2753" height="64"></rect>
            <polygon id="Rectangle-Copy-Copy-13" fill="#FFFFFF" fill-rule="nonzero" points="582 1625 3335 1625 3335 1689 582 1689 582 1661.31281"></polygon>
            <rect id="Rectangle-Copy-13" fill="#FAFAFA" fill-rule="nonzero" x="582" y="1561" width="2753" height="64"></rect>
            <polygon id="Rectangle-Copy-Copy-14" fill="#FFFFFF" fill-rule="nonzero" points="582 1753 3335 1753 3335 1817 582 1817 582 1789.31281"></polygon>
            <rect id="Rectangle-Copy-14" fill="#FAFAFA" fill-rule="nonzero" x="582" y="1689" width="2753" height="64"></rect>
            <polygon id="Rectangle-Copy-Copy-15" fill="#FFFFFF" fill-rule="nonzero" points="582 1881 3335 1881 3335 1945 582 1945 582 1917.31281"></polygon>
            <rect id="Rectangle-Copy-15" fill="#FAFAFA" fill-rule="nonzero" x="582" y="1817" width="2753" height="64"></rect>
            <polygon id="Rectangle-Copy-Copy-16" fill="#FFFFFF" fill-rule="nonzero" points="582 2009 3335 2009 3335 2073 582 2073 582 2045.31281"></polygon>
            <rect id="Rectangle-Copy-16" fill="#FAFAFA" fill-rule="nonzero" x="582" y="1945" width="2753" height="64"></rect>
            <polygon id="Rectangle-Copy-Copy-17" fill="#FFFFFF" fill-rule="nonzero" points="582 2137 3335 2137 3335 2201 582 2201 582 2173.31281"></polygon>
            <rect id="Rectangle-Copy-17" fill="#FAFAFA" fill-rule="nonzero" x="582" y="2073" width="2753" height="64"></rect>
            <polygon id="Rectangle-Copy-Copy-18" fill="#FFFFFF" fill-rule="nonzero" points="582 2265 3335 2265 3335 2329 582 2329 582 2301.31281"></polygon>
            <rect id="Rectangle-Copy-18" fill="#FAFAFA" fill-rule="nonzero" x="582" y="2201" width="2753" height="64"></rect>
            <g id="timeline" transform="translate(574.000000, 115.000000)" fill="#3B3B3B" fill-rule="nonzero" font-family="Helvetica-Light, Helvetica" font-size="24" font-weight="300">
                <text id="400">
                    <tspan x="1777" y="25">400</tspan>
                </text>
                <text id="420">
                    <tspan x="1871" y="25">420</tspan>
                </text>
                <text id="440">
                    <tspan x="1965" y="25">440</tspan>
                </text>
                <text id="460">
                    <tspan x="2059" y="25">460</tspan>
                </text>
                <text id="480">
                    <tspan x="2153" y="25">480</tspan>
                </text>
                <text id="500">
                    <tspan x="2247" y="25">500</tspan>
                </text>
                <text id="20">
                    <tspan x="67" y="23">20</tspan>
                </text>
                <text id="40">
                    <tspan x="142" y="24">40</tspan>
                </text>
                <text id="60">
                    <tspan x="217" y="23">60</tspan>
                </text>
                <text id="80">
                    <tspan x="292" y="24">80</tspan>
                </text>
                <text id="100">
                    <tspan x="367" y="23">100</tspan>
                </text>
                <text id="120">
                    <tspan x="461" y="24">120</tspan>
                </text>
                <text id="140">
                    <tspan x="555" y="24">140</tspan>
                </text>
                <text id="160">
                    <tspan x="649" y="23">160</tspan>
                </text>
                <text id="180">
                    <tspan x="743" y="24">180</tspan>
                </text>
                <text id="200">
                    <tspan x="837" y="24">200</tspan>
                </text>
                <text id="220">
                    <tspan x="931" y="24">220</tspan>
                </text>
                <text id="240">
                    <tspan x="1025" y="24">240</tspan>
                </text>
                <text id="260">
                    <tspan x="1119" y="24">260</tspan>
                </text>
                <text id="280">
                    <tspan x="1213" y="24">280</tspan>
                </text>
                <text id="300">
                    <tspan x="1307" y="24">300</tspan>
                </text>
                <text id="320">
                    <tspan x="1401" y="24">320</tspan>
                </text>
                <text id="340">
                    <tspan x="1495" y="26">340</tspan>
                </text>
                <text id="360">
                    <tspan x="1589" y="25">360</tspan>
                </text>
                <text id="380">
                    <tspan x="1683" y="25">380</tspan>
                </text>
                <text id="1">
                    <tspan x="0" y="23">1</tspan>
                </text>
            </g>
            <g id="sticky-svg" transform="translate(6.000000, 0.000000)">
                <polygon id="Rectangle-Copy" fill="#FFFFFF" fill-rule="nonzero" points="0 215 576 215 576 279 0 279 0 251.31281"></polygon>
                <rect id="Rectangle" fill="#FAFAFA" fill-rule="nonzero" x="0" y="151" width="576" height="64"></rect>
                <rect id="Rectangle-Copy-4" fill="#FAFAFA" fill-rule="nonzero" x="0" y="407" width="576" height="64"></rect>
                <rect id="Rectangle-Copy-2" fill="#FAFAFA" fill-rule="nonzero" x="1" y="279" width="576" height="64"></rect>
                <rect id="Rectangle-Copy-3" fill="#FFFFFF" fill-rule="nonzero" x="0" y="343" width="576" height="64"></rect>
                <rect id="Rectangle-Copy-5" fill="#FFFFFF" fill-rule="nonzero" x="0" y="471" width="576" height="64"></rect>
                <rect id="Rectangle-Copy-8" fill="#FAFAFA" fill-rule="nonzero" x="0" y="535" width="576" height="64"></rect>
                <rect id="Rectangle-Copy-7-2" fill="#FFFFFF" fill-rule="nonzero" x="0" y="599" width="576" height="64"></rect>
                <rect id="Rectangle-Copy-10" fill="#FAFAFA" fill-rule="nonzero" x="0" y="663" width="576" height="64"></rect>
                <rect id="Rectangle-Copy-9" fill="#FFFFFF" fill-rule="nonzero" x="0" y="727" width="576" height="64"></rect>
                <rect id="Rectangle-Copy-10" fill="#FAFAFA" fill-rule="nonzero" x="0" y="791" width="576" height="64"></rect>
                <rect id="Rectangle-Copy-9" fill="#FFFFFF" fill-rule="nonzero" x="0" y="855" width="578" height="64"></rect>
                <rect id="Rectangle-Copy-10" fill="#FAFAFA" fill-rule="nonzero" x="0" y="919" width="576" height="64"></rect>
                <rect id="Rectangle-Copy-9" fill="#FFFFFF" fill-rule="nonzero" x="0" y="983" width="576" height="64"></rect>
                <rect id="Rectangle-Copy-10" fill="#FAFAFA" fill-rule="nonzero" x="0" y="1047" width="576" height="64"></rect>
                <rect id="Rectangle-Copy-9" fill="#FFFFFF" fill-rule="nonzero" x="0" y="1111" width="576" height="64"></rect>
                <rect id="Rectangle-Copy-10" fill="#FAFAFA" fill-rule="nonzero" x="0" y="1175" width="576" height="64"></rect>
                <rect id="Rectangle-Copy-9" fill="#FFFFFF" fill-rule="nonzero" x="0" y="1239" width="576" height="64"></rect>
                <rect id="Rectangle-Copy-10" fill="#FAFAFA" fill-rule="nonzero" x="0" y="1303" width="576" height="64"></rect>
                <rect id="Rectangle-Copy-11" fill="#FFFFFF" fill-rule="nonzero" x="0" y="1367" width="576" height="64"></rect>
                <rect id="Rectangle-Copy-12" fill="#FAFAFA" fill-rule="nonzero" x="0" y="1431" width="576" height="64"></rect>
                <rect id="Rectangle-Copy-13" fill="#FFFFFF" fill-rule="nonzero" x="0" y="1495" width="576" height="64"></rect>
                <rect id="Rectangle-Copy-14" fill="#FAFAFA" fill-rule="nonzero" x="0" y="1559" width="576" height="64"></rect>
                <rect id="Rectangle-Copy-10" fill="#FAFAFA" fill-rule="nonzero" x="0" y="1687" width="576" height="64"></rect>
                <rect id="Rectangle-Copy-9" fill="#FFFFFF" fill-rule="nonzero" x="0" y="1623" width="576" height="64"></rect>
                <rect id="Rectangle-Copy-10" fill="#FAFAFA" fill-rule="nonzero" x="0" y="1815" width="576" height="64"></rect>
                <rect id="Rectangle-Copy-9" fill="#FFFFFF" fill-rule="nonzero" x="0" y="1751" width="576" height="64"></rect>
                <rect id="Rectangle-Copy-10" fill="#FAFAFA" fill-rule="nonzero" x="0" y="1943" width="576" height="64"></rect>
                <rect id="Rectangle-Copy-9" fill="#FFFFFF" fill-rule="nonzero" x="2" y="1879" width="576" height="64"></rect>
                <rect id="Rectangle-Copy-16" fill="#FAFAFA" fill-rule="nonzero" x="0" y="2071" width="576" height="64"></rect>
                <rect id="Rectangle-Copy-18" fill="#FAFAFA" fill-rule="nonzero" x="0" y="2199" width="576" height="64"></rect>
                <rect id="Rectangle-Copy-15" fill="#FFFFFF" fill-rule="nonzero" x="0" y="2007" width="576" height="64"></rect>
                <rect id="Rectangle-Copy-17" fill="#FFFFFF" fill-rule="nonzero" x="0" y="2135" width="576" height="64"></rect>
                <rect id="Rectangle-Copy-17" fill="#FFFFFF" fill-rule="nonzero" x="0" y="2263" width="576" height="64"></rect>
                <line x1="575.5" y1="152.5" x2="575.875" y2="2407.75" id="line_1" stroke="#979797" stroke-linecap="square"></line>
                <line x1="4" y1="152" x2="3331.5" y2="152.5" id="Line" stroke="#979797" stroke-linecap="square"></line>
                <text id="-" fill="#3B3B3B" fill-rule="nonzero" font-family="Helvetica-Light, Helvetica" font-size="24" font-weight="300">
                    <tspan x="37" y="2382">-</tspan>
                </text>
                <text id="British-Library-collection-moves" fill="#000020" fill-rule="nonzero" font-family="Helvetica-Light, Helvetica" font-size="36" font-weight="300">
                    <tspan x="16" y="35">British Library collection moves</tspan>
                </text>
                <g id="variables" transform="translate(37.000000, 171.000000)" fill="#3B3B3B" fill-rule="nonzero" font-family="Helvetica-Light, Helvetica" font-size="24" font-weight="300">
                    <g id="move_1">
                        <text>
                            <tspan x="0" y="23">-</tspan>
                        </text>
                    </g>
                    <g id="move_2" transform="translate(0.000000, 65.000000)">
                        <text>
                            <tspan x="0" y="23">-</tspan>
                        </text>
                    </g>
                    <g id="move_3" transform="translate(0.000000, 130.000000)">
                        <text>
                            <tspan x="0" y="23">-</tspan>
                        </text>
                    </g>
                    <g id="move_4" transform="translate(0.000000, 195.000000)">
                        <text>
                            <tspan x="0" y="23">-</tspan>
                        </text>
                    </g>
                    <g id="move_5" transform="translate(0.000000, 260.000000)">
                        <text>
                            <tspan x="0" y="23">-</tspan>
                        </text>
                    </g>
                    <g id="move_6" transform="translate(0.000000, 325.000000)">
                        <text>
                            <tspan x="0" y="23">-</tspan>
                        </text>
                    </g>
                    <g id="move_7" transform="translate(0.000000, 390.000000)">
                        <text>
                            <tspan x="0" y="23">-</tspan>
                        </text>
                    </g>
                    <g id="move_8" transform="translate(0.000000, 455.000000)">
                        <text>
                            <tspan x="0" y="23">-</tspan>
                        </text>
                    </g>
                    <g id="move_9" transform="translate(0.000000, 520.000000)">
                        <text>
                            <tspan x="0" y="23">-</tspan>
                        </text>
                    </g>
                    <g id="move_10" transform="translate(0.000000, 585.000000)">
                        <text>
                            <tspan x="0" y="23">-</tspan>
                        </text>
                    </g>
                    <g id="move_11" transform="translate(0.000000, 650.000000)">
                        <text>
                            <tspan x="0" y="23">-</tspan>
                        </text>
                    </g>
                    <g id="move_12" transform="translate(0.000000, 715.000000)">
                        <text>
                            <tspan x="0" y="23">-</tspan>
                        </text>
                    </g>
                    <g id="move_13" transform="translate(0.000000, 780.000000)">
                        <text>
                            <tspan x="0" y="23">-</tspan>
                        </text>
                    </g>
                    <g id="move_14" transform="translate(0.000000, 845.000000)">
                        <text>
                            <tspan x="0" y="23">-</tspan>
                        </text>
                    </g>
                    <g id="move_15" transform="translate(0.000000, 910.000000)">
                        <text>
                            <tspan x="0" y="23">-</tspan>
                        </text>
                    </g>
                    <g id="move_16" transform="translate(0.000000, 975.000000)">
                        <text>
                            <tspan x="0" y="23">-</tspan>
                        </text>
                    </g>
                    <g id="move_17" transform="translate(0.000000, 1040.000000)">
                        <text>
                            <tspan x="0" y="23">-</tspan>
                        </text>
                    </g>
                    <g id="move_18" transform="translate(0.000000, 2145.000000)">
                        <text>
                            <tspan x="0" y="23">-</tspan>
                        </text>
                    </g>
                    <g id="move_19" transform="translate(0.000000, 1105.000000)">
                        <text>
                            <tspan x="0" y="23">-</tspan>
                        </text>
                    </g>
                    <g id="move_20" transform="translate(0.000000, 1170.000000)">
                        <text id="-">
                            <tspan x="0" y="23">-</tspan>
                        </text>
                    </g>
                    <g id="move_21" transform="translate(0.000000, 1235.000000)">
                        <text id="-">
                            <tspan x="0" y="23">-</tspan>
                        </text>
                    </g>
                    <g id="move_22" transform="translate(0.000000, 1300.000000)">
                        <text id="-">
                            <tspan x="0" y="23">-</tspan>
                        </text>
                    </g>
                    <g id="move_23" transform="translate(0.000000, 1365.000000)">
                        <text id="-">
                            <tspan x="0" y="23">-</tspan>
                        </text>
                    </g>
                    <g id="move_25" transform="translate(0.000000, 1495.000000)">
                        <text>
                            <tspan x="0" y="23">-</tspan>
                        </text>
                    </g>
                    <g id="move_24" transform="translate(0.000000, 1430.000000)">
                        <text>
                            <tspan x="0" y="23">-</tspan>
                        </text>
                    </g>
                    <g id="move_27" transform="translate(0.000000, 1625.000000)">
                        <text>
                            <tspan x="0" y="23">-</tspan>
                        </text>
                    </g>
                    <g id="move_26" transform="translate(0.000000, 1560.000000)">
                        <text>
                            <tspan x="0" y="23">-</tspan>
                        </text>
                    </g>
                    <g id="move_29" transform="translate(0.000000, 1755.000000)">
                        <text>
                            <tspan x="0" y="23">-</tspan>
                        </text>
                    </g>
                    <g id="move_28" transform="translate(0.000000, 1690.000000)">
                        <text>
                            <tspan x="0" y="23">-</tspan>
                        </text>
                    </g>
                    <g id="move_31" transform="translate(0.000000, 1885.000000)">
                        <text>
                            <tspan x="0" y="23">-</tspan>
                        </text>
                    </g>
                    <g id="move_33" transform="translate(0.000000, 2015.000000)">
                        <text>
                            <tspan x="0" y="23">-</tspan>
                        </text>
                    </g>
                    <g id="move_30" transform="translate(0.000000, 1820.000000)">
                        <text>
                            <tspan x="0" y="23">-</tspan>
                        </text>
                    </g>
                    <g id="move_35" transform="translate(0.000000, 2080.000000)">
                        <text>
                            <tspan x="0" y="23">-</tspan>
                        </text>
                    </g>
                    <g id="move_32" transform="translate(0.000000, 1950.000000)">
                        <text>
                            <tspan x="0" y="23">-</tspan>
                        </text>
                    </g>
                </g>
            </g>
        </g>
    </g>
</svg>