<?xml version="1.0" encoding="UTF-8"?>
<svg width="5000px" height="5004px" viewBox="0 0 5000 5004" version="1.1" xmlns="http://www.w3.org/2000/svg" xmlns:xlink="http://www.w3.org/1999/xlink">
    <title>Day 1</title>
    <defs>
        <linearGradient x1="50%" y1="-12.9890267%" x2="50%" y2="91.2118321%" id="linearGradient-1">
            <stop stop-color="#959595" offset="0%"></stop>
            <stop stop-color="#FFFFFF" offset="100%"></stop>
        </linearGradient>
    </defs>
    <g id="Day-1" stroke="none" stroke-width="1" fill="none" fill-rule="evenodd">
        <path d="M1087.38162,521.5 L1385.43806,521.5 L1500.38716,1082.5 L1144.45384,1082.5 L1129.2226,925.5 L926.134253,925.5 L909.550034,1082.5 L530.605527,1082.5 L638.689653,521.5 L965.023476,521.5 L955.448213,618.5 L1097.55518,618.5 L1087.38162,521.5 Z" id="Combined-Shape-Copy-6" stroke="#979797" fill="url(#linearGradient-1)"></path>
        <polygon id="zone_7_1" stroke="#979797" fill="#D8D8D8" points="956 618 1097 618 1128.76876 926 926.584219 926"></polygon>
        <polygon id="zone_7_2" stroke="#979797" points="771 778.5 726.574219 1083 910 1083 939.5 778.5"></polygon>
        <polygon id="zone_7_3" stroke="#979797" points="589.503906 777.961318 530 1083 726.574219 1083 771 777.961318"></polygon>
        <polygon id="zone_7_6" stroke="#979797" points="1238.24219 521 1275 777.5 1113.53711 777.961318 1086.82644 521"></polygon>
        <polygon id="zone_7_7" stroke="#979797" points="1438.53516 777.961318 1275 777.961318 1238.24219 521 1385.84599 521"></polygon>
        <polygon id="zone_7_9" points="1113.53711 777.961318 1275 777.961318 1320.10547 1083 1144 1083"></polygon>
        <polygon id="zone_7_8" stroke="#979797" points="1275 777.961318 1438.53516 777.730659 1501 1083 1320.10547 1083"></polygon>
        <polygon id="zone_7_4" stroke="#979797" points="638.772883 521 590 777.961318 771.496094 777.961318 809.277344 521"></polygon>
        <polygon id="zone_7_5" stroke="#979797" points="808.78125 521 965.575263 521 939.5 778.25 771 778.5"></polygon>
        <path d="M965.023476,1201.5 L955.448213,1298.5 L1097.55518,1298.5 L1087.38162,1201.5 L1385.43806,1201.5 L1500.38716,1762.5 L1144.45384,1762.5 L1129.2226,1605.5 L926.134253,1605.5 L909.550034,1762.5 L530.605527,1762.5 L638.689653,1201.5 L965.023476,1201.5 Z" id="Combined-Shape-Copy-6" stroke="#979797" fill="url(#linearGradient-1)"></path>
        <polygon id="zone_6_4" stroke="#979797" points="638.27679 1201 589.503906 1457.96132 771 1457.96132 808.78125 1201"></polygon>
        <polygon id="zone_6_2" stroke="#979797" points="771 1458.5 726.574219 1763 910 1763 939.5 1458.5"></polygon>
        <polygon id="zone_6_3" stroke="#979797" points="589.503906 1457.96132 530 1763 726.574219 1763 771 1457.96132"></polygon>
        <polygon id="zone_6_6" stroke="#979797" points="1238.24219 1201 1275 1457.5 1113.53711 1457.96132 1086.82644 1201"></polygon>
        <polygon id="zone_6_7" stroke="#979797" points="1438.53516 1457.96132 1275 1457.96132 1238.24219 1201 1385.84599 1201"></polygon>
        <polygon id="zone_6_9" stroke="#979797" points="1113.53711 1457.96132 1275 1457.96132 1320.10547 1763 1144 1763"></polygon>
        <polygon id="zone_6_8" points="1275 1457.96132 1438.53516 1457.73066 1501 1763 1320.10547 1763"></polygon>
        <polygon id="zone_6_5" points="808.78125 1201 965.575263 1201 939.5 1458.25 771 1458.5"></polygon>
        <polygon id="zone_6_1" stroke="#979797" points="956 1298 1097 1298 1128.76876 1606 926.584219 1606"></polygon>
        <path d="M1385.43806,1881.5 L1500.38716,2442.5 L1144.45384,2442.5 L1129.2226,2285.5 L926.134253,2285.5 L909.550034,2442.5 L530.605527,2442.5 L638.689653,1881.5 L965.023476,1881.5 L955.448213,1978.5 L1097.55518,1978.5 L1087.38162,1881.5 L1385.43806,1881.5 Z" id="Combined-Shape-Copy-6" stroke="#979797" fill="url(#linearGradient-1)"></path>
        <polygon id="zone_5_4" stroke="#979797" points="638.27679 1881 589.503906 2137.96132 771 2137.96132 808.78125 1881"></polygon>
        <polygon id="zone_5_2" stroke="#979797" points="771 2138.5 726.574219 2443 910 2443 939.5 2138.5"></polygon>
        <polygon id="zone_5_3" stroke="#979797" points="589.503906 2137.96132 530 2443 726.574219 2443 771 2137.96132"></polygon>
        <polygon id="zone_5_6" stroke="#979797" points="1238.24219 1881 1275 2137.5 1113.53711 2137.96132 1086.82644 1881"></polygon>
        <polygon id="zone_5_7" stroke="#979797" points="1438.53516 2137.96132 1275 2137.96132 1238.24219 1881 1385.84599 1881"></polygon>
        <polygon id="zone_5_9" stroke="#979797" points="1113.53711 2137.96132 1275 2137.96132 1320.10547 2443 1144 2443"></polygon>
        <polygon id="zone_5_8" stroke="#979797" points="1275 2137.96132 1438.53516 2137.73066 1501 2443 1320.10547 2443"></polygon>
        <polygon id="zone_5_5" stroke="#979797" points="808.78125 1881 965.575263 1881 939.5 2138.25 771 2138.5"></polygon>
        <polygon id="zone_5_1" stroke="#979797" points="956 1978 1097 1978 1128.76876 2286 926.584219 2286"></polygon>
        <path d="M965.023476,2561.5 L955.448213,2658.5 L1097.55518,2658.5 L1087.38162,2561.5 L1385.43806,2561.5 L1500.38716,3122.5 L1144.45384,3122.5 L1129.2226,2965.5 L926.134253,2965.5 L909.550034,3122.5 L530.605527,3122.5 L638.689653,2561.5 L965.023476,2561.5 Z" id="Combined-Shape-Copy-6" stroke="#979797" fill="url(#linearGradient-1)"></path>
        <polygon id="zone_4_4" stroke="#979797" points="638.27679 2561 589.503906 2817.96132 771 2817.96132 808.78125 2561"></polygon>
        <polygon id="zone_4_2" stroke="#979797" points="771 2818.5 726.574219 3123 910 3123 939.5 2818.5"></polygon>
        <polygon id="zone_4_3" stroke="#979797" points="589.503906 2817.96132 530 3123 726.574219 3123 771 2817.96132"></polygon>
        <polygon id="zone_4_6" stroke="#979797" points="1238.24219 2561 1275 2817.5 1113.53711 2817.96132 1086.82644 2561"></polygon>
        <polygon id="zone_4_7" stroke="#979797" points="1438.53516 2817.96132 1275 2817.96132 1238.24219 2561 1385.84599 2561"></polygon>
        <polygon id="zone_4_9" stroke="#979797" points="1113.53711 2817.96132 1275 2817.96132 1320.10547 3123 1144 3123"></polygon>
        <polygon id="zone_4_8" stroke="#979797" points="1275 2817.96132 1438.53516 2817.73066 1501 3123 1320.10547 3123"></polygon>
        <polygon id="zone_4_5" stroke="#979797" points="808.78125 2561 965.575263 2561 939.5 2818.25 771 2818.5"></polygon>
        <polygon id="zone_4_1" stroke="#979797" points="956 2658 1097 2658 1128.76876 2966 926.584219 2966"></polygon>
        <path d="M1087.38162,3241.5 L1385.43806,3241.5 L1500.38716,3802.5 L1144.45384,3802.5 L1129.2226,3645.5 L926.134253,3645.5 L909.550034,3802.5 L530.605527,3802.5 L638.689653,3241.5 L965.023476,3241.5 L955.448213,3338.5 L1097.55518,3338.5 L1087.38162,3241.5 Z" id="Combined-Shape-Copy-6" stroke="#979797" fill="url(#linearGradient-1)"></path>
        <polygon id="zone_3_4" stroke="#979797" points="638.27679 3241 589.503906 3497.96132 771 3497.96132 808.78125 3241"></polygon>
        <polygon id="zone_3_2" stroke="#979797" points="771 3498.5 726.574219 3803 910 3803 939.5 3498.5"></polygon>
        <polygon id="zone_3_3" stroke="#979797" points="589.503906 3497.96132 530 3803 726.574219 3803 771 3497.96132"></polygon>
        <polygon id="zone_3_6" stroke="#979797" points="1238.24219 3241 1275 3497.5 1113.53711 3497.96132 1086.82644 3241"></polygon>
        <polygon id="zone_3_7" stroke="#979797" points="1438.53516 3497.96132 1275 3497.96132 1238.24219 3241 1385.84599 3241"></polygon>
        <polygon id="zone_3_9" stroke="#979797" points="1113.53711 3497.96132 1275 3497.96132 1320.10547 3803 1144 3803"></polygon>
        <polygon id="zone_3_8" stroke="#979797" points="1275 3497.96132 1438.53516 3497.73066 1501 3803 1320.10547 3803"></polygon>
        <polygon id="zone_3_5" stroke="#979797" points="808.78125 3241 965.575263 3241 939.5 3498.25 771 3498.5"></polygon>
        <polygon id="zone_3_1" stroke="#979797" points="956 3338 1097 3338 1128.76876 3646 926.584219 3646"></polygon>
        <path d="M965.023476,3921.5 L955.448213,4018.5 L1097.55518,4018.5 L1087.38162,3921.5 L1385.43806,3921.5 L1500.38716,4482.5 L1144.45384,4482.5 L1129.2226,4325.5 L926.134253,4325.5 L909.550034,4482.5 L530.605527,4482.5 L638.689653,3921.5 L965.023476,3921.5 Z" id="Combined-Shape-Copy-6" stroke="#979797" fill="url(#linearGradient-1)"></path>
        <polygon id="zone_2_4" stroke="#979797" points="638.27679 3921 589.503906 4177.96132 771 4177.96132 808.78125 3921"></polygon>
        <polygon id="zone_2_2" stroke="#979797" points="771 4178.5 726.574219 4483 910 4483 939.5 4178.5"></polygon>
        <polygon id="zone_2_3" stroke="#979797" points="589.503906 4177.96132 530 4483 726.574219 4483 771 4177.96132"></polygon>
        <polygon id="zone_6" stroke="#979797" points="1238.24219 3921 1275 4177.5 1113.53711 4177.96132 1086.82644 3921"></polygon>
        <polygon id="zone_2_7" stroke="#979797" points="1438.53516 4177.96132 1275 4177.96132 1238.24219 3921 1385.84599 3921"></polygon>
        <polygon id="zone_2_9" stroke="#979797" points="1113.53711 4177.96132 1275 4177.96132 1320.10547 4483 1144 4483"></polygon>
        <polygon id="zone_2_8" stroke="#979797" points="1275 4177.96132 1438.53516 4177.73066 1501 4483 1320.10547 4483"></polygon>
        <polygon id="zone_2_5" stroke="#979797" points="808.78125 3921 965.575263 3921 939.5 4178.25 771 4178.5"></polygon>
        <polygon id="zone_2_1" stroke="#979797" points="956 4018 1097 4018 1128.76876 4326 926.584219 4326"></polygon>
        <text id="Day" font-family="Helvetica-Light, Helvetica" font-size="100" font-weight="300" fill="#000000">
            <tspan x="30" y="119">Day</tspan>
        </text>
        <text id="Building-6" font-family="Helvetica-Light, Helvetica" font-size="72" font-weight="300" fill="#565656">
            <tspan x="30" y="291">Building 6</tspan>
        </text>
        <text id="123" font-family="Helvetica-Light, Helvetica" font-size="72" font-weight="300" fill="#565656">
            <tspan x="2197" y="1690">Building 31</tspan>
        </text>
        <rect id="zone_b31" stroke="#979797" x="2135.5" y="1604.5" width="487" height="120"></rect>
        <text id="zone_b31-copy" font-family="Helvetica-Light, Helvetica" font-size="72" font-weight="300" fill="#565656">
            <tspan x="2266" y="1899">Off site</tspan>
        </text>
        <rect id="offSite" stroke="#979797" x="2135.5" y="1813.5" width="487" height="120"></rect>
        <text id="dayNumber" font-family="Helvetica-Light, Helvetica" font-size="100" font-weight="300" fill="#000000">
            <tspan x="248" y="119">—</tspan>
        </text>
    </g>
</svg>