<?xml version="1.0" encoding="UTF-8"?>
<svg width="10000px" height="5004px" viewBox="0 0 10000 5004" version="1.1" xmlns="http://www.w3.org/2000/svg" xmlns:xlink="http://www.w3.org/1999/xlink">
    <title>Days</title>
    <defs>
        <linearGradient x1="50%" y1="-12.9890267%" x2="50%" y2="91.2118321%" id="linearGradient-1">
            <stop stop-color="#959595" offset="0%"></stop>
            <stop stop-color="#FFFFFF" offset="100%"></stop>
        </linearGradient>
    </defs>
    <g id="Days" stroke="none" stroke-width="1" fill="none" fill-rule="evenodd">
        <g id="day1" transform="translate(30.000000, 22.000000)">
            <path d="M1355.43806,499.5 L1470.38716,1060.5 L1114.45384,1060.5 L1099.2226,903.5 L896.134253,903.5 L879.550034,1060.5 L500.605527,1060.5 L608.689653,499.5 L935.023476,499.5 L925.448213,596.5 L1067.55518,596.5 L1057.38162,499.5 L1355.43806,499.5 Z" id="Combined-Shape-Copy-6" stroke="#979797" fill="url(#linearGradient-1)"></path>
            <polygon id="zone_7_1" stroke="#979797" fill="#D8D8D8" points="926 596 1067 596 1098.76876 904 896.584219 904"></polygon>
            <polygon id="zone_7_2" stroke="#979797" points="741 756.5 696.574219 1061 880 1061 909.5 756.5"></polygon>
            <polygon id="zone_7_3" stroke="#979797" points="559.503906 755.961318 500 1061 696.574219 1061 741 755.961318"></polygon>
            <polygon id="zone_7_6" stroke="#979797" points="1208.24219 499 1245 755.5 1083.53711 755.961318 1056.82644 499"></polygon>
            <polygon id="zone_7_7" stroke="#979797" points="1408.53516 755.961318 1245 755.961318 1208.24219 499 1355.84599 499"></polygon>
            <polygon id="zone_7_9" points="1083.53711 755.961318 1245 755.961318 1290.10547 1061 1114 1061"></polygon>
            <polygon id="zone_7_8" stroke="#979797" points="1245 755.961318 1408.53516 755.730659 1471 1061 1290.10547 1061"></polygon>
            <polygon id="zone_7_4" stroke="#979797" points="608.772883 499 560 755.961318 741.496094 755.961318 779.277344 499"></polygon>
            <polygon id="zone_7_5" stroke="#979797" points="778.78125 499 935.575263 499 909.5 756.25 741 756.5"></polygon>
            <path d="M1057.38162,1179.5 L1355.43806,1179.5 L1470.38716,1740.5 L1114.45384,1740.5 L1099.2226,1583.5 L896.134253,1583.5 L879.550034,1740.5 L500.605527,1740.5 L608.689653,1179.5 L935.023476,1179.5 L925.448213,1276.5 L1067.55518,1276.5 L1057.38162,1179.5 Z" id="Combined-Shape-Copy-6" stroke="#979797" fill="url(#linearGradient-1)"></path>
            <polygon id="zone_6_4" stroke="#979797" points="608.27679 1179 559.503906 1435.96132 741 1435.96132 778.78125 1179"></polygon>
            <polygon id="zone_6_2" stroke="#979797" points="741 1436.5 696.574219 1741 880 1741 909.5 1436.5"></polygon>
            <polygon id="zone_6_3" stroke="#979797" points="559.503906 1435.96132 500 1741 696.574219 1741 741 1435.96132"></polygon>
            <polygon id="zone_6_6" stroke="#979797" points="1208.24219 1179 1245 1435.5 1083.53711 1435.96132 1056.82644 1179"></polygon>
            <polygon id="zone_6_7" stroke="#979797" points="1408.53516 1435.96132 1245 1435.96132 1208.24219 1179 1355.84599 1179"></polygon>
            <polygon id="zone_6_9" stroke="#979797" points="1083.53711 1435.96132 1245 1435.96132 1290.10547 1741 1114 1741"></polygon>
            <polygon id="zone_6_8" points="1245 1435.96132 1408.53516 1435.73066 1471 1741 1290.10547 1741"></polygon>
            <polygon id="zone_6_5" points="778.78125 1179 935.575263 1179 909.5 1436.25 741 1436.5"></polygon>
            <polygon id="zone_6_1" stroke="#979797" points="926 1276 1067 1276 1098.76876 1584 896.584219 1584"></polygon>
            <path d="M935.023476,1859.5 L925.448213,1956.5 L1067.55518,1956.5 L1057.38162,1859.5 L1355.43806,1859.5 L1470.38716,2420.5 L1114.45384,2420.5 L1099.2226,2263.5 L896.134253,2263.5 L879.550034,2420.5 L500.605527,2420.5 L608.689653,1859.5 L935.023476,1859.5 Z" id="Combined-Shape-Copy-6" stroke="#979797" fill="url(#linearGradient-1)"></path>
            <polygon id="zone_5_4" stroke="#979797" points="608.27679 1859 559.503906 2115.96132 741 2115.96132 778.78125 1859"></polygon>
            <polygon id="zone_5_2" stroke="#979797" points="741 2116.5 696.574219 2421 880 2421 909.5 2116.5"></polygon>
            <polygon id="zone_5_3" stroke="#979797" points="559.503906 2115.96132 500 2421 696.574219 2421 741 2115.96132"></polygon>
            <polygon id="zone_5_6" stroke="#979797" points="1208.24219 1859 1245 2115.5 1083.53711 2115.96132 1056.82644 1859"></polygon>
            <polygon id="zone_5_7" stroke="#979797" points="1408.53516 2115.96132 1245 2115.96132 1208.24219 1859 1355.84599 1859"></polygon>
            <polygon id="zone_5_9" stroke="#979797" points="1083.53711 2115.96132 1245 2115.96132 1290.10547 2421 1114 2421"></polygon>
            <polygon id="zone_5_8" stroke="#979797" points="1245 2115.96132 1408.53516 2115.73066 1471 2421 1290.10547 2421"></polygon>
            <polygon id="zone_5_5" stroke="#979797" points="778.78125 1859 935.575263 1859 909.5 2116.25 741 2116.5"></polygon>
            <polygon id="zone_5_1" stroke="#979797" points="926 1956 1067 1956 1098.76876 2264 896.584219 2264"></polygon>
            <path d="M608.689653,2539.5 L935.023476,2539.5 L925.448213,2636.5 L1067.55518,2636.5 L1057.38162,2539.5 L1355.43806,2539.5 L1470.38716,3100.5 L1114.45384,3100.5 L1099.2226,2943.5 L896.134253,2943.5 L879.550034,3100.5 L500.605527,3100.5 L608.689653,2539.5 Z" id="Combined-Shape-Copy-6" stroke="#979797" fill="url(#linearGradient-1)"></path>
            <polygon id="zone_4_4" stroke="#979797" points="608.27679 2539 559.503906 2795.96132 741 2795.96132 778.78125 2539"></polygon>
            <polygon id="zone_4_2" stroke="#979797" points="741 2796.5 696.574219 3101 880 3101 909.5 2796.5"></polygon>
            <polygon id="zone_4_3" stroke="#979797" points="559.503906 2795.96132 500 3101 696.574219 3101 741 2795.96132"></polygon>
            <polygon id="zone_4_6" stroke="#979797" points="1208.24219 2539 1245 2795.5 1083.53711 2795.96132 1056.82644 2539"></polygon>
            <polygon id="zone_4_7" stroke="#979797" points="1408.53516 2795.96132 1245 2795.96132 1208.24219 2539 1355.84599 2539"></polygon>
            <polygon id="zone_4_9" stroke="#979797" points="1083.53711 2795.96132 1245 2795.96132 1290.10547 3101 1114 3101"></polygon>
            <polygon id="zone_4_8" stroke="#979797" points="1245 2795.96132 1408.53516 2795.73066 1471 3101 1290.10547 3101"></polygon>
            <polygon id="zone_4_5" stroke="#979797" points="778.78125 2539 935.575263 2539 909.5 2796.25 741 2796.5"></polygon>
            <polygon id="zone_4_1" stroke="#979797" points="926 2636 1067 2636 1098.76876 2944 896.584219 2944"></polygon>
            <path d="M935.023476,3219.5 L925.448213,3316.5 L1067.55518,3316.5 L1057.38162,3219.5 L1355.43806,3219.5 L1470.38716,3780.5 L1114.45384,3780.5 L1099.2226,3623.5 L896.134253,3623.5 L879.550034,3780.5 L500.605527,3780.5 L608.689653,3219.5 L935.023476,3219.5 Z" id="Combined-Shape-Copy-6" stroke="#979797" fill="url(#linearGradient-1)"></path>
            <polygon id="zone_3_4" stroke="#979797" points="608.27679 3219 559.503906 3475.96132 741 3475.96132 778.78125 3219"></polygon>
            <polygon id="zone_3_2" stroke="#979797" points="741 3476.5 696.574219 3781 880 3781 909.5 3476.5"></polygon>
            <polygon id="zone_3_3" stroke="#979797" points="559.503906 3475.96132 500 3781 696.574219 3781 741 3475.96132"></polygon>
            <polygon id="zone_3_6" stroke="#979797" points="1208.24219 3219 1245 3475.5 1083.53711 3475.96132 1056.82644 3219"></polygon>
            <polygon id="zone_3_7" stroke="#979797" points="1408.53516 3475.96132 1245 3475.96132 1208.24219 3219 1355.84599 3219"></polygon>
            <polygon id="zone_3_9" stroke="#979797" points="1083.53711 3475.96132 1245 3475.96132 1290.10547 3781 1114 3781"></polygon>
            <polygon id="zone_3_8" stroke="#979797" points="1245 3475.96132 1408.53516 3475.73066 1471 3781 1290.10547 3781"></polygon>
            <polygon id="zone_3_5" stroke="#979797" points="778.78125 3219 935.575263 3219 909.5 3476.25 741 3476.5"></polygon>
            <polygon id="zone_3_1" stroke="#979797" points="926 3316 1067 3316 1098.76876 3624 896.584219 3624"></polygon>
            <path d="M935.023476,3899.5 L925.448213,3996.5 L1067.55518,3996.5 L1057.38162,3899.5 L1355.43806,3899.5 L1470.38716,4460.5 L1114.45384,4460.5 L1099.2226,4303.5 L896.134253,4303.5 L879.550034,4460.5 L500.605527,4460.5 L608.689653,3899.5 L935.023476,3899.5 Z" id="Combined-Shape-Copy-6" stroke="#979797" fill="url(#linearGradient-1)"></path>
            <polygon id="zone_2_4" stroke="#979797" points="608.27679 3899 559.503906 4155.96132 741 4155.96132 778.78125 3899"></polygon>
            <polygon id="zone_2_2" stroke="#979797" points="741 4156.5 696.574219 4461 880 4461 909.5 4156.5"></polygon>
            <polygon id="zone_2_3" stroke="#979797" points="559.503906 4155.96132 500 4461 696.574219 4461 741 4155.96132"></polygon>
            <polygon id="zone_6" stroke="#979797" points="1208.24219 3899 1245 4155.5 1083.53711 4155.96132 1056.82644 3899"></polygon>
            <polygon id="zone_2_7" stroke="#979797" points="1408.53516 4155.96132 1245 4155.96132 1208.24219 3899 1355.84599 3899"></polygon>
            <polygon id="zone_2_9" stroke="#979797" points="1083.53711 4155.96132 1245 4155.96132 1290.10547 4461 1114 4461"></polygon>
            <polygon id="zone_2_8" stroke="#979797" points="1245 4155.96132 1408.53516 4155.73066 1471 4461 1290.10547 4461"></polygon>
            <polygon id="zone_2_5" stroke="#979797" points="778.78125 3899 935.575263 3899 909.5 4156.25 741 4156.5"></polygon>
            <polygon id="zone_2_1" stroke="#979797" points="926 3996 1067 3996 1098.76876 4304 896.584219 4304"></polygon>
            <text id="Day" font-family="Helvetica-Light, Helvetica" font-size="100" font-weight="300" fill="#000000">
                <tspan x="0" y="97">Day</tspan>
            </text>
            <text id="Building-6" font-family="Helvetica-Light, Helvetica" font-size="72" font-weight="300" fill="#565656">
                <tspan x="0" y="269">Building 6</tspan>
            </text>
            <text id="123" font-family="Helvetica-Light, Helvetica" font-size="72" font-weight="300" fill="#565656">
                <tspan x="2167" y="1668">Building 31</tspan>
            </text>
            <rect id="zone_b31" stroke="#979797" x="2105.5" y="1582.5" width="487" height="120"></rect>
            <text id="zone_b31-copy" font-family="Helvetica-Light, Helvetica" font-size="72" font-weight="300" fill="#565656">
                <tspan x="2236" y="1877">Off site</tspan>
            </text>
            <rect id="offSite" stroke="#979797" x="2105.5" y="1791.5" width="487" height="120"></rect>
            <text id="dayNumber" font-family="Helvetica-Light, Helvetica" font-size="100" font-weight="300" fill="#000000">
                <tspan x="218" y="97">—</tspan>
            </text>
        </g>
    </g>
</svg>